<svg width="96" height="96" xmlns="http://www.w3.org/2000/svg" xmlns:xlink="http://www.w3.org/1999/xlink" xml:space="preserve" overflow="hidden"><defs><clipPath id="clip0"><rect x="273" y="319" width="96" height="96"/></clipPath></defs><g clip-path="url(#clip0)" transform="translate(-273 -319)"><path d="M321 392C311 392 303 384 303 374 303 364 311 356 321 356 331 356 339 364 339 374 339 384 331 392 321 392ZM301 360 289 360 289 352 301 352 301 360ZM357 344 337 344 331 334 311 334 305 344 285 344C282.8 344 281 345.8 281 348L281 396C281 398.2 282.8 400 285 400L357 400C359.2 400 361 398.2 361 396L361 348C361 345.8 359.2 344 357 344Z" fill="#60B1F3"/><path d="M321 364C315.4 364 311 368.4 311 374 311 379.6 315.4 384 321 384 326.6 384 331 379.6 331 374 331 368.4 326.6 364 321 364ZM321 388C313.2 388 307 381.8 307 374 307 366.2 313.2 360 321 360 328.8 360 335 366.2 335 374 335 381.8 328.8 388 321 388Z" fill="#60B1F3"/></g></svg>