<svg width="96" height="96" xmlns="http://www.w3.org/2000/svg" xmlns:xlink="http://www.w3.org/1999/xlink" xml:space="preserve" overflow="hidden"><defs><clipPath id="clip0"><rect x="273" y="228" width="96" height="96"/></clipPath></defs><g clip-path="url(#clip0)" transform="translate(-273 -228)"><path d="M281 248 281 304 361 304 361 248 281 248ZM322.4 282.9C321.6 283.7 320.4 283.7 319.6 282.9L290 254 352.1 254 322.4 282.9ZM306.5 275.7 287 295.3 287 256.6 306.5 275.7ZM309.4 278.5 316.9 285.8C318.1 286.9 319.6 287.5 321.1 287.5 322.6 287.5 324.1 286.9 325.3 285.8L332.8 278.5 352.2 298 289.9 298 309.4 278.5ZM335.5 275.7 355 256.7 355 295.2 335.5 275.7Z" fill="#60B1F3"/></g></svg>