<?xml version="1.0" standalone="no"?>
<!DOCTYPE svg PUBLIC "-//W3C//DTD SVG 20010904//EN"
 "http://www.w3.org/TR/2001/REC-SVG-20010904/DTD/svg10.dtd">
<svg version="1.0" xmlns="http://www.w3.org/2000/svg"
 width="336.000000pt" height="336.000000pt" viewBox="0 0 336.000000 336.000000"
 preserveAspectRatio="xMidYMid meet">
<metadata>
Created by potrace 1.14, written by Peter Selinger 2001-2017
</metadata>
<g transform="translate(0.000000,336.000000) scale(0.100000,-0.100000)"
fill="#000000" stroke="none">
<path d="M1051 2931 c-331 -192 -607 -353 -612 -358 -5 -5 90 -68 224 -149
767 -465 952 -574 971 -574 18 0 382 209 1145 657 l105 61 -45 27 c-24 14
-190 110 -369 214 -179 103 -417 241 -530 306 -113 65 -223 129 -245 141 l-40
23 -604 -348z m647 -146 c94 -28 172 -135 172 -235 0 -100 -78 -207 -172 -235
-89 -26 -153 -14 -231 44 -117 87 -127 263 -21 366 70 68 155 88 252 60z"/>
<path d="M268 2281 c-1 -6 -2 -326 0 -711 l2 -699 68 -39 c37 -22 305 -177
597 -345 291 -169 531 -304 533 -302 3 2 1 316 -3 697 l-7 693 -62 36 c-82 48
-1065 642 -1103 666 -13 9 -22 10 -25 4z"/>
<path d="M2440 1938 c-327 -192 -610 -356 -627 -365 l-33 -17 1 -380 c1 -210
5 -526 8 -702 l6 -322 415 240 c228 132 505 291 615 355 110 63 203 118 208
122 4 4 6 324 5 712 l-3 705 -595 -348z"/>
</g>
</svg>
